<svg width="17" height="20" viewBox="0 0 17 20" fill="none" xmlns="http://www.w3.org/2000/svg">
<g clip-path="url(#clip0_1_3655)">
<g clip-path="url(#clip1_1_3655)">
<g clip-path="url(#clip2_1_3655)">
<path d="M8.4707 10C11.2318 10 13.4707 7.7611 13.4707 5C13.4707 2.2389 11.2318 0 8.4707 0C5.7096 0 3.4707 2.2389 3.4707 5C3.47318 7.75986 5.71084 9.99752 8.4707 10ZM8.4707 1.66708C10.3114 1.66708 11.8036 3.15927 11.8036 5C11.8036 6.84073 10.3114 8.33292 8.4707 8.33292C6.62997 8.33292 5.13778 6.84073 5.13778 5C5.13778 3.15927 6.62997 1.66708 8.4707 1.66708Z" fill="#212529"/>
<path d="M8.47059 11.6671C4.33142 11.6708 0.973692 15.0273 0.969971 19.1677C0.969971 19.6279 1.34333 20.0012 1.80351 20.0012C2.26369 20.0012 2.63705 19.6279 2.63705 19.1677C2.63705 15.9464 5.24931 13.3341 8.47059 13.3341C11.6919 13.3341 14.3041 15.9464 14.3041 19.1677C14.3041 19.6279 14.6775 20.0012 15.1377 20.0012C15.5979 20.0012 15.9712 19.6279 15.9712 19.1677C15.9675 15.0285 12.611 11.6708 8.47059 11.6671Z" fill="#212529"/>
</g>
</g>
</g>
<defs>
<clipPath id="clip0_1_3655">
<rect width="16" height="20" fill="white" transform="translate(0.469971)"/>
</clipPath>
<clipPath id="clip1_1_3655">
<rect width="16" height="20" fill="white" transform="translate(0.469971)"/>
</clipPath>
<clipPath id="clip2_1_3655">
<rect width="15.0001" height="20" fill="white" transform="translate(0.969971)"/>
</clipPath>
</defs>
</svg>
