<svg width="66" height="20" viewBox="0 0 66 20" fill="none" xmlns="http://www.w3.org/2000/svg">
<g clip-path="url(#clip0_1_3629)">
<g clip-path="url(#clip1_1_3629)">
<path d="M42.1375 3.39756C41.6639 2.8286 40.962 2.5 40.2217 2.5C40.2206 2.5 40.2196 2.5 40.2186 2.5H26.745L26.7095 2.20791C26.5614 0.950303 25.4945 0.0010142 24.2278 0H24.0422C23.5817 0 23.2085 0.373225 23.2085 0.833671C23.2085 1.29412 23.5817 1.66734 24.0422 1.66734H24.2268C24.6497 1.66734 25.0046 1.98377 25.0543 2.40365L26.2014 12.1531C26.4478 14.2515 28.2267 15.8337 30.3393 15.8337H39.0422C39.5026 15.8337 39.8758 15.4604 39.8758 15C39.8758 14.5395 39.5026 14.1663 39.0422 14.1663H30.3393C29.2825 14.1633 28.3414 13.4959 27.9894 12.5H37.9225C39.9387 12.5 41.6659 11.0568 42.0229 9.07301L42.677 5.44421C42.7034 5.29715 42.7176 5.14807 42.7176 4.99898C42.7176 4.41379 42.5117 3.84685 42.1355 3.39756H42.1375ZM41.0432 5.14807L40.388 8.77687C40.174 9.96754 39.1375 10.8337 37.9275 10.8337C37.9265 10.8337 37.9255 10.8337 37.9235 10.8337H27.7247L26.9407 4.16734H40.2176C40.2196 4.16734 40.2206 4.16734 40.2227 4.16734C40.6831 4.16734 41.0563 4.54056 41.0563 5.00101C41.0563 5.0507 41.0513 5.1004 41.0432 5.14908V5.14807Z" fill="#212529"/>
<path d="M29.0443 19.999C29.9645 19.999 30.7106 19.2529 30.7106 18.3326C30.7106 17.4124 29.9645 16.6663 29.0443 16.6663C28.124 16.6663 27.3779 17.4124 27.3779 18.3326C27.3779 19.2529 28.124 19.999 29.0443 19.999Z" fill="#212529"/>
<path d="M37.3768 19.999C38.2971 19.999 39.0431 19.2529 39.0431 18.3326C39.0431 17.4124 38.2971 16.6663 37.3768 16.6663C36.4565 16.6663 35.7104 17.4124 35.7104 18.3326C35.7104 19.2529 36.4565 19.999 37.3768 19.999Z" fill="#212529"/>
</g>
</g>
<defs>
<clipPath id="clip0_1_3629">
<rect width="64.97" height="20" fill="white" transform="translate(0.47998)"/>
</clipPath>
<clipPath id="clip1_1_3629">
<rect width="19.5091" height="20" fill="white" transform="translate(23.2104)"/>
</clipPath>
</defs>
</svg>
