<svg width="25" height="25" viewBox="0 0 17 17" fill="none" xmlns="http://www.w3.org/2000/svg">
<g clip-path="url(#clip0_2007_152)">
<g clip-path="url(#clip1_2007_152)">
<path fill-rule="evenodd" clip-rule="evenodd" d="M1.75321 1.95209C1.80737 1.68131 2.07078 1.5057 2.34156 1.55985L3.04113 1.69977C3.8313 1.8578 4.42564 2.51326 4.50582 3.31507L4.56267 3.88347H13.613C14.9358 3.88347 15.9064 5.12663 15.5856 6.40997L14.8371 9.40398C14.5217 10.6653 13.3885 11.5501 12.0883 11.5501H6.09307C5.16503 11.5501 4.38337 10.8566 4.27279 9.93525L3.61314 4.43815L3.51079 3.41458C3.47434 3.05012 3.20419 2.75218 2.84502 2.68035L2.14545 2.54043C1.87467 2.48628 1.69906 2.22287 1.75321 1.95209ZM6.91007 8.55005C6.63393 8.55005 6.41007 8.77391 6.41007 9.05005C6.41007 9.32618 6.63393 9.55005 6.91007 9.55005H9.57674C9.85287 9.55005 10.0767 9.32618 10.0767 9.05005C10.0767 8.77391 9.85287 8.55005 9.57674 8.55005H6.91007Z" fill="white"/>
<path d="M6.5769 14.3834C7.12919 14.3834 7.5769 13.9357 7.5769 13.3834C7.5769 12.8311 7.12919 12.3834 6.5769 12.3834C6.02462 12.3834 5.5769 12.8311 5.5769 13.3834C5.5769 13.9357 6.02462 14.3834 6.5769 14.3834Z" fill="white"/>
<path d="M12.5769 14.3834C13.1292 14.3834 13.5769 13.9357 13.5769 13.3834C13.5769 12.8311 13.1292 12.3834 12.5769 12.3834C12.0246 12.3834 11.5769 12.8311 11.5769 13.3834C11.5769 13.9357 12.0246 14.3834 12.5769 14.3834Z" fill="white"/>
</g>
</g>
<defs>
<clipPath id="clip0_2007_152">
<rect width="16" height="16" fill="white" transform="translate(0.910156 0.0500488)"/>
</clipPath>
<clipPath id="clip1_2007_152">
<rect width="16" height="16" fill="white" transform="translate(0.910156 0.0500488)"/>
</clipPath>
</defs>
</svg>
