<svg width="81" height="20" viewBox="0 0 81 20" fill="none" xmlns="http://www.w3.org/2000/svg">
<g clip-path="url(#clip0_1_3641)">
<path fill-rule="evenodd" clip-rule="evenodd" d="M45.718 1.91243C46.9914 1.91243 48.4377 2.81218 49.1309 3.83086C49.7723 4.77386 49.9381 5.53307 49.9381 6.71152C49.9381 8.71644 48.2311 11.3677 46.971 12.8092C46.7583 13.053 46.577 13.2933 46.3499 13.5203L45.4405 14.521C44.8447 15.1108 43.8945 16.067 43.2674 16.5692C43.1894 16.6316 43.1593 16.6737 43.0861 16.7421C42.3437 17.4365 41.5797 18.0864 40.4312 18.0864C39.481 18.0864 38.9272 17.6407 38.4191 17.2106C38.3374 17.141 38.3278 17.1482 38.2437 17.0749C38.1752 17.0136 38.1536 16.9824 38.0828 16.9247L37.5314 16.455C37.386 16.3145 37.3404 16.2652 37.1818 16.1391C36.9427 15.9481 36.777 15.7259 36.5151 15.5169C36.0274 15.1276 35.0976 14.0525 34.6003 13.5215C33.8963 12.7683 32.8848 11.4517 32.3587 10.564C31.5358 9.17533 31.0121 8.13983 31.0121 6.26825C31.0121 5.16308 31.5586 4.00745 32.289 3.28068C33.8591 1.71903 35.8964 1.44754 37.7152 2.80858C38.6498 3.50892 39.3645 4.67296 39.493 5.87423C39.5459 6.37516 39.4138 6.73194 39.6228 7.12235C40.1117 8.03652 41.4535 7.67133 41.4535 6.62382C41.4535 5.4646 41.6121 4.67656 42.3665 3.67109L42.9011 3.09448C43.3095 2.77975 43.2698 2.71488 43.9269 2.38693C44.393 2.15509 45.0477 1.91363 45.7192 1.91363L45.718 1.91243ZM29.1008 6.04481V6.93375C29.1008 8.54346 30.0054 10.409 30.6301 11.4481C30.8259 11.7749 31.0181 12.0536 31.2247 12.3635L32.689 14.2759C33.4975 15.1829 33.8399 15.5625 34.7324 16.4538C35.3979 17.1193 37.2563 18.8336 37.9506 19.278C39.6168 20.346 41.8668 20.2186 43.414 18.9813L46.1961 16.4755C47.9764 14.6952 49.7087 12.7767 50.8439 10.5039L51.3004 9.45042C51.8241 7.97886 51.8505 7.67133 51.8505 6.13491C51.8505 4.58406 51.0685 2.97556 49.9958 1.90282C47.4971 -0.595828 43.9546 -0.667905 41.3538 1.90282C41.1592 2.09502 40.5814 2.80858 40.5213 3.06926H40.4324C40.2955 2.48063 39.0906 1.37666 38.5128 0.989852C36.7662 -0.178987 34.6327 -0.320737 32.7455 0.625867C31.3676 1.3166 30.4318 2.24398 29.7243 3.64707C29.4444 4.20086 29.102 5.22074 29.102 6.04601L29.1008 6.04481Z" fill="#212529"/>
</g>
<defs>
<clipPath id="clip0_1_3641">
<rect width="22.7488" height="20" fill="white" transform="translate(29.1006)"/>
</clipPath>
</defs>
</svg>
