<svg width="130" height="33" viewBox="0 0 130 33" fill="none" xmlns="http://www.w3.org/2000/svg">
<g clip-path="url(#clip0_1_3583)">
<g clip-path="url(#clip1_1_3583)">
<g clip-path="url(#clip2_1_3583)">
<path fill-rule="evenodd" clip-rule="evenodd" d="M29.2678 31.5382L34.5252 29.1444L22.1063 2.13794L18.8979 8.97951L29.2678 31.5382Z" fill="#006BFF"/>
<path fill-rule="evenodd" clip-rule="evenodd" d="M3.12598 24.8316C5.4748 23.1874 8.19844 21.993 11.2169 21.2134L20.6522 0.503784H14.3504L3.12598 24.8316Z" fill="#006BFF"/>
<path fill-rule="evenodd" clip-rule="evenodd" d="M0.812012 29.3793L6.2193 31.878C8.45818 29.7541 11.4017 28.5097 14.4602 28.045C18.4882 27.4503 22.816 28.1349 26.2443 29.8591L23.0009 22.8526C18.748 21.883 15.0549 22.1079 12.0364 22.8326C5.95943 24.3068 2.826 27.3603 0.812012 29.3793Z" fill="#006BFF"/>
<path fill-rule="evenodd" clip-rule="evenodd" d="M14.0503 19.4343C14.0503 19.9691 14.5001 20.3939 14.9099 20.3939C15.2447 20.3939 15.5445 20.3239 15.8794 20.3239C16.9239 20.3239 17.5186 20.2089 18.7529 20.3789L20.2472 20.5638C20.7669 20.5638 21.2167 20.2239 21.4416 19.8091C21.7764 19.0245 21.2567 18.3599 20.8469 17.4453L19.0178 13.4423C18.9079 13.2474 18.9079 13.1825 18.7929 13.0175C18.2682 12.3129 17.1537 12.3079 16.704 13.4024L14.2052 18.9046C14.1303 19.0545 14.0553 19.2244 14.0553 19.4393L14.0503 19.4343Z" fill="#006BFF"/>
<path fill-rule="evenodd" clip-rule="evenodd" d="M75.5844 16.8806C75.5844 16.211 75.6594 15.6912 75.8793 15.0815C75.9542 14.8167 76.0642 14.5868 76.2141 14.3669C77.2486 12.6328 79.5374 11.9981 81.3865 12.8676C82.9007 13.5973 83.7903 15.1215 83.7903 16.8407C83.7903 18.6198 82.9757 19.8891 81.5364 20.7337C80.467 21.3434 78.8778 21.3134 77.7683 20.7687C77.5084 20.6438 77.3635 20.5588 77.1386 20.3789L76.8788 20.149C76.434 19.7442 76.0642 19.1795 75.8443 18.6148C75.6944 18.115 75.5844 17.4154 75.5844 16.8706V16.8806ZM78.7978 24.5718C80.5719 24.5718 81.9362 24.2819 83.3405 23.3374L83.7853 23.0126V24.132H87.6634V9.5693H83.7853V10.7237C83.4904 10.5138 83.4505 10.4339 82.9357 10.109C81.9362 9.51932 80.5719 9.12952 79.3525 9.12952H78.6879C77.3185 9.12952 75.6594 9.81418 74.6999 10.6438C74.6249 10.7237 74.5499 10.7687 74.48 10.8487L74.0002 11.2884C73.7403 11.5433 73.1856 12.2679 73.0007 12.5728C72.301 13.7272 71.8563 15.0565 71.8563 16.4409C71.8563 16.6508 71.8213 16.6957 71.8213 16.8806L71.8563 17.7452C72.0062 18.7947 72.0062 18.9596 72.371 19.9641C72.6659 20.7037 73.2956 21.7082 73.8103 22.213L74.1401 22.5478C74.8448 23.2075 74.9547 23.3224 75.8393 23.8172C75.9142 23.8521 75.9142 23.8621 75.9892 23.8871C76.394 24.082 76.7288 24.202 77.1736 24.3369C77.5784 24.4668 78.2431 24.5768 78.7978 24.5768V24.5718Z" fill="#13306A"/>
<path fill-rule="evenodd" clip-rule="evenodd" d="M48.3881 21.1785C47.5735 21.1785 47.0188 21.1785 46.2842 20.7987C45.8394 20.5688 45.8045 20.5188 45.4347 20.224C45.2498 20.064 45.1048 19.9241 44.9548 19.7292C44.8799 19.6393 44.805 19.5443 44.77 19.4493C43.8105 18.0201 43.8455 15.6263 44.805 14.162C45.3597 13.3524 46.3591 12.6977 47.3536 12.5478C48.2782 12.4079 49.0878 12.4928 49.9423 12.9176C51.2717 13.5773 52.2712 15.0216 52.2712 16.7757C52.2712 18.14 51.8665 19.1195 51.1268 19.8591C50.4222 20.5738 49.5027 21.1735 48.3932 21.1735L48.3881 21.1785ZM40.3321 16.4409C40.3321 18.2749 40.4421 19.2495 41.2567 20.7937C41.7364 21.7032 42.3261 22.2979 43.0658 22.9676C44.1352 23.9121 45.7995 24.5718 47.2388 24.5718C48.4932 24.5718 49.2327 24.4918 50.3071 24.107C50.677 23.9821 51.0468 23.8072 51.3416 23.6223C51.8964 23.3124 51.8615 23.2974 52.2663 23.0126V24.132H56.1442V9.5693H52.2663V10.6887L51.3816 10.089C49.9024 9.28944 48.9429 9.12952 47.1688 9.12952C46.3192 9.12952 45.0998 9.45435 44.3601 9.86915C43.6955 10.249 43.6205 10.3339 43.0658 10.7587L41.9563 11.8881C41.5515 12.4279 41.2567 12.8926 40.9568 13.5373C40.622 14.2769 40.3271 15.3864 40.3271 16.4459L40.3321 16.4409Z" fill="#13306A"/>
<path fill-rule="evenodd" clip-rule="evenodd" d="M116.444 29.1045H120.732L129.043 9.83914C129.118 9.74419 129.153 9.62925 129.193 9.5293H124.87C124.87 9.65423 124.685 9.98906 124.65 10.119C124.54 10.3139 124.465 10.5088 124.39 10.6837L121.876 16.4558C121.726 16.8506 121.582 17.2055 121.397 17.6102C121.322 17.8052 121.247 17.9901 121.137 18.185C121.062 18.3349 120.952 18.6247 120.917 18.7747L120.142 17.0405C120.032 16.8456 119.957 16.6707 119.882 16.4658C119.732 16.061 119.588 15.7162 119.438 15.3114C118.808 13.8072 118.143 12.2379 117.519 10.7137L117.039 9.53429H112.751C112.751 9.65923 113.71 11.8531 113.785 12.0031C114.12 12.8226 114.45 13.6172 114.82 14.4418C116.074 17.3654 117.334 20.3789 118.588 23.2874C118.808 23.7472 118.808 23.5673 118.513 24.1969L116.704 28.4848C116.594 28.6697 116.484 28.9246 116.444 29.1095V29.1045Z" fill="#13306A"/>
<path fill-rule="evenodd" clip-rule="evenodd" d="M89.6226 24.127H94.2053L97.3837 19.5193C97.4187 19.6592 98.1983 20.7537 98.3432 20.9536C99.0478 21.993 99.8224 23.0775 100.522 24.127H105.14L100.227 17.0155C100.302 16.9556 100.447 16.7007 100.522 16.5758L104.51 10.4688C104.73 10.154 104.915 9.84412 105.14 9.52428H100.522L100.117 10.124C100.007 10.3339 99.8574 10.5288 99.7475 10.7387L97.5686 14.102C97.4936 14.2069 97.4187 14.3419 97.3487 14.4018L96.5741 13.1775C96.4991 13.0825 96.4641 13.0025 96.3892 12.8876L95.2048 11.0535C95.1298 10.9386 95.0548 10.8586 94.9849 10.7437C94.8749 10.5338 94.765 10.3639 94.6151 10.144C94.4651 9.92408 94.3552 9.74917 94.2103 9.51929H89.6276C89.8474 9.94407 92.2512 13.5873 92.6211 14.107L94.4301 16.8756C94.5401 17.0605 94.5051 17.0455 94.2802 17.3404L93.6505 18.2399C93.0958 19.1195 92.3962 20.064 91.8015 20.9436C91.3967 21.5433 89.7675 23.8171 89.6226 24.117V24.127Z" fill="#13306A"/>
<path fill-rule="evenodd" clip-rule="evenodd" d="M58.1083 13.8321C58.1083 14.8966 58.4431 15.9211 59.1778 16.6257C59.4726 16.9006 59.8824 17.2055 60.2123 17.3904C60.4321 17.5053 60.5821 17.5853 60.8419 17.6902C62.3962 18.2799 65.1298 18.5648 65.9794 18.9596C67.5686 19.7092 66.684 21.4533 64.76 21.4533C63.6905 21.4533 62.8409 21.3984 62.1013 20.7037L62.0663 20.6687C62.0663 20.6687 62.0663 20.6587 62.0663 20.6487C61.8065 20.3739 61.5516 19.8991 61.5516 19.4843C61.3667 19.4843 57.7485 20.2439 57.6335 20.2689C57.6685 20.5488 57.7835 21.0685 57.8534 21.3084C58.2233 22.2429 58.813 22.9476 59.6625 23.4673C60.697 24.077 62.2512 24.5668 63.8754 24.5668C65.2447 24.5668 66.3492 24.4968 67.5686 24.012C68.4531 23.6522 69.1228 23.1925 69.6725 22.5078C69.9674 22.183 70.1523 21.7832 70.3022 21.3434C70.4871 20.8686 70.5621 20.3839 70.5971 19.7842L70.5221 18.9846C70.4871 18.7197 70.4121 18.4798 70.3372 18.2599C70.1523 17.8202 69.9324 17.4503 69.6325 17.1255C68.5981 15.9461 67.4136 15.7412 65.9744 15.3964C65.4596 15.2714 63.4606 14.8766 63.0208 14.7367C62.616 14.5968 62.1363 14.3819 62.0213 13.9171C61.7265 12.9126 62.6111 12.173 63.7955 12.173C64.755 12.173 65.8294 12.3929 66.3842 13.2924C66.5341 13.5023 66.679 13.8471 66.679 14.172C66.9389 14.172 67.3787 14.047 67.6035 14.0021L70.3722 13.4573C70.3722 13.1925 70.1873 12.6927 70.1123 12.4778C69.9624 12.163 69.8524 11.9331 69.6675 11.6482C68.5581 10.0191 66.3792 9.11951 64.4601 9.11951C63.3157 9.11951 62.5761 9.11951 61.5066 9.47933C59.6975 10.079 58.1083 11.6133 58.1083 13.8222V13.8321Z" fill="#13306A"/>
<path fill-rule="evenodd" clip-rule="evenodd" d="M107.284 24.1269H111.162V9.56421H107.284V24.1269Z" fill="#13306A"/>
<path fill-rule="evenodd" clip-rule="evenodd" d="M109.203 7.91008C109.942 7.91008 110.497 7.63022 110.902 7.27539C111.087 7.10548 111.272 6.85061 111.382 6.61572C111.676 6.02602 111.641 5.23142 111.382 4.63172C111.162 4.19194 110.642 3.6622 110.197 3.4773C110.047 3.41733 109.937 3.38234 109.752 3.33736C108.938 3.13247 108.053 3.43232 107.533 3.93706C107.089 4.40183 106.869 4.88159 106.834 5.58624C106.799 6.38584 107.169 7.08549 107.833 7.51527C108.203 7.78014 108.683 7.91008 109.198 7.91008H109.203Z" fill="#13306A"/>
</g>
</g>
</g>
<defs>
<clipPath id="clip0_1_3583">
<rect width="130" height="32" fill="white" transform="translate(0 0.5)"/>
</clipPath>
<clipPath id="clip1_1_3583">
<rect width="130" height="32" fill="white" transform="translate(0 0.5)"/>
</clipPath>
<clipPath id="clip2_1_3583">
<rect width="130" height="32" fill="white" transform="translate(0 0.5)"/>
</clipPath>
</defs>
</svg>
