<svg width="73" height="20" viewBox="0 0 73 20" fill="none" xmlns="http://www.w3.org/2000/svg">
<g clip-path="url(#clip0_1_3611)">
<g clip-path="url(#clip1_1_3611)">
<path d="M29.2338 15.5548C30.1542 15.5548 30.9003 14.8087 30.9003 13.8884C30.9003 12.968 30.1542 12.2219 29.2338 12.2219C28.3135 12.2219 27.5674 12.968 27.5674 13.8884C27.5674 14.8087 28.3135 15.5548 29.2338 15.5548Z" fill="#212529"/>
<path d="M44.2331 0H28.6783C25.6116 0.00272963 23.1263 2.48942 23.1235 5.5548V14.4438C23.1263 17.5106 25.6116 19.9959 28.6783 20H44.2331C47.2999 19.9959 49.7852 17.5106 49.7879 14.4452V5.55616C49.7852 2.48942 47.2999 0.00409445 44.2331 0.00136482V0ZM28.6783 2.22192H44.2331C46.0743 2.22192 47.566 3.71503 47.566 5.5548H25.3441C25.3441 3.71366 26.8372 2.22192 28.677 2.22192H28.6783ZM44.2331 17.7767H28.6783C26.8372 17.7767 25.3455 16.2836 25.3455 14.4438V7.77672H47.5674V14.4438C47.5674 16.285 46.0743 17.7767 44.2345 17.7767H44.2331Z" fill="#212529"/>
</g>
</g>
<defs>
<clipPath id="clip0_1_3611">
<rect width="71.23" height="20" fill="white" transform="translate(0.840088)"/>
</clipPath>
<clipPath id="clip1_1_3611">
<rect width="26.6665" height="20" fill="white" transform="translate(23.1218)"/>
</clipPath>
</defs>
</svg>
