<svg width="39" height="21" viewBox="0 0 39 21" fill="none" xmlns="http://www.w3.org/2000/svg">
<path d="M3.78809 7.09106C3.94043 6.78638 4.37207 6.79907 4.51172 7.09106L5.34961 8.77954L7.20312 9.04614C7.5332 9.09692 7.66016 9.50317 7.41895 9.74438L6.08594 11.052L6.40332 12.8928C6.4541 13.2229 6.09863 13.4768 5.80664 13.3245L4.15625 12.4485L2.49316 13.3245C2.20117 13.4768 1.8457 13.2229 1.89648 12.8928L2.21387 11.052L0.880859 9.74438C0.639648 9.50317 0.766602 9.09692 1.09668 9.04614L2.96289 8.77954L3.78809 7.09106Z" fill="#FE7300"/>
<path d="M11.5981 7.09106C11.7504 6.78638 12.1821 6.79907 12.3217 7.09106L13.1596 8.77954L15.0131 9.04614C15.3432 9.09692 15.4702 9.50317 15.2289 9.74438L13.8959 11.052L14.2133 12.8928C14.2641 13.2229 13.9086 13.4768 13.6166 13.3245L11.9662 12.4485L10.3032 13.3245C10.0112 13.4768 9.6557 13.2229 9.70648 12.8928L10.0239 11.052L8.69086 9.74438C8.44965 9.50317 8.5766 9.09692 8.90668 9.04614L10.7729 8.77954L11.5981 7.09106Z" fill="#FE7300"/>
<path d="M19.4181 7.09106C19.5704 6.78638 20.0021 6.79907 20.1417 7.09106L20.9796 8.77954L22.8331 9.04614C23.1632 9.09692 23.2902 9.50317 23.049 9.74438L21.7159 11.052L22.0333 12.8928C22.0841 13.2229 21.7286 13.4768 21.4366 13.3245L19.7863 12.4485L18.1232 13.3245C17.8312 13.4768 17.4757 13.2229 17.5265 12.8928L17.8439 11.052L16.5109 9.74438C16.2697 9.50317 16.3966 9.09692 16.7267 9.04614L18.5929 8.77954L19.4181 7.09106Z" fill="#FE7300"/>
<path d="M27.2281 7.09106C27.3804 6.78638 27.8121 6.79907 27.9517 7.09106L28.7896 8.77954L30.6431 9.04614C30.9732 9.09692 31.1002 9.50317 30.8589 9.74438L29.5259 11.052L29.8433 12.8928C29.8941 13.2229 29.5386 13.4768 29.2466 13.3245L27.5963 12.4485L25.9332 13.3245C25.6412 13.4768 25.2857 13.2229 25.3365 12.8928L25.6539 11.052L24.3209 9.74438C24.0797 9.50317 24.2066 9.09692 24.5367 9.04614L26.4029 8.77954L27.2281 7.09106Z" fill="#FE7300"/>
<path d="M35.0381 7.09106C35.1904 6.78638 35.6221 6.79907 35.7617 7.09106L36.5996 8.77954L38.4531 9.04614C38.7832 9.09692 38.9102 9.50317 38.6689 9.74438L37.3359 11.052L37.6533 12.8928C37.7041 13.2229 37.3486 13.4768 37.0566 13.3245L35.4062 12.4485L33.7432 13.3245C33.4512 13.4768 33.0957 13.2229 33.1465 12.8928L33.4639 11.052L32.1309 9.74438C31.8896 9.50317 32.0166 9.09692 32.3467 9.04614L34.2129 8.77954L35.0381 7.09106Z" fill="#FE7300"/>
</svg>
