<svg width="86" height="20" viewBox="0 0 86 20" fill="none" xmlns="http://www.w3.org/2000/svg">
<g clip-path="url(#clip0_1_3621)">
<g clip-path="url(#clip1_1_3621)">
<path fill-rule="evenodd" clip-rule="evenodd" d="M33.2419 6.62761L33.4258 6.99553C33.4521 7.04809 33.4865 7.09661 33.5148 7.14917C33.7564 7.59896 34.0242 8.04167 34.2971 8.47226C34.5731 8.9079 34.8621 9.34455 35.1704 9.75694C35.3089 9.94191 35.417 10.1117 35.6141 10.2421C35.7951 10.3624 36.0255 10.4422 36.2438 10.4422C36.8554 10.4422 37.0757 10.2087 37.4184 9.74582C37.4962 9.6407 37.5669 9.53053 37.6427 9.42339C37.7175 9.31827 37.7873 9.21011 37.8631 9.106C38.1572 8.70271 38.4291 8.2509 38.6879 7.82334L39.076 7.12996C39.3358 6.66602 39.541 6.19601 39.7108 5.69063C40.0393 4.71221 39.6956 3.49424 39.0427 2.72303C38.7293 2.35208 38.3776 2.04784 37.945 1.82244C37.3719 1.52426 36.8453 1.42015 36.1974 1.42015C35.9022 1.42015 35.6151 1.47372 35.3311 1.54852C34.4315 1.78403 33.5623 2.47943 33.1499 3.31432C32.5303 4.56666 32.6526 5.39852 33.2429 6.62963L33.2419 6.62761ZM35.317 5.02757V4.86585C35.317 4.39584 35.7476 3.96222 36.3358 3.96222C36.8008 3.96222 37.2627 4.40494 37.2627 4.86585C37.2627 5.1802 37.2031 5.45108 36.9676 5.6593C36.2489 6.29406 35.317 5.68962 35.317 5.02757ZM50.0155 18.2423C49.3444 18.2423 48.7136 17.6935 48.7136 17.0213C48.7136 16.6443 48.7359 16.7555 48.7541 16.5331H51.1951C51.3962 16.9526 51.2001 17.5924 50.8989 17.8643C50.6857 18.0573 50.3006 18.2413 50.0145 18.2413L50.0155 18.2423ZM39.1508 16.9809L39.2327 16.5331H41.6737C41.7161 17.0476 41.8121 17.7369 40.9752 18.1139C40.0463 18.5324 39.1508 17.7955 39.1508 16.9809ZM52.2938 14.743H49.5677V11.3246H53.8807V13.0338C53.8807 13.5301 53.6684 13.9395 53.4238 14.2043C53.1903 14.458 52.7608 14.743 52.2938 14.743ZM36.5471 13.0338V11.8543C36.9857 11.8128 37.4133 11.6632 37.7812 11.4075C38.2937 11.0517 38.5979 10.5443 38.9628 10.0177C39.4207 9.35668 39.7087 8.87858 40.1019 8.21451C40.1515 8.13062 40.1929 8.06188 40.2354 7.97799L40.6134 7.24418C40.8792 6.67006 41.2694 5.76644 41.2694 4.95884C41.2694 4.19571 41.0298 3.26884 40.6801 2.61791H45.0911C46.6689 2.61791 47.8171 3.76715 47.8171 5.34394V14.743H38.133C37.3193 14.743 36.5461 13.9557 36.5461 13.0338H36.5471ZM34.7974 11.4065V13.1976C34.7974 13.5908 34.9339 14.1164 35.0683 14.3923C35.5575 15.4 36.3116 16.149 37.4426 16.4128C37.381 17.1507 37.3355 17.5277 37.6993 18.312C38.1097 19.1955 39.1417 19.9374 40.1697 19.995C40.7751 20.0293 41.2663 19.9454 41.7283 19.7231C42.0295 19.5785 42.1649 19.4957 42.3964 19.2935C42.6268 19.0924 42.7441 18.9984 42.9432 18.7012C43.2606 18.2261 43.5042 17.5752 43.5042 16.9425C43.5042 16.7696 43.4637 16.7514 43.4637 16.5351H46.963C46.963 17.086 46.8538 17.1618 47.1106 17.934C47.6443 19.5422 49.4576 20.469 51.2193 19.7322C51.5286 19.6028 51.8622 19.3784 52.1017 19.15C52.5111 18.7598 53.0266 17.9219 53.0266 17.1446C53.0266 16.7898 53.0549 16.709 52.9862 16.4118C54.4477 16.0712 55.6313 14.641 55.6313 13.1976V8.51774C55.6313 7.74248 55.3463 7.02383 55.0602 6.52552C54.4275 5.4248 53.3278 4.62326 52.0168 4.4009C51.3194 4.28264 50.3137 4.3261 49.4869 4.3261L49.2605 3.61654C48.6227 2.02257 47.0712 0.867263 45.2548 0.867263H39.1053C38.9092 0.735863 38.6909 0.611539 38.4443 0.487215C37.851 0.190051 37.1758 0.0273175 36.4935 0.0010376H36.0872C35.4049 0.0283282 34.7287 0.190051 34.1364 0.487215C33.8251 0.643884 33.3066 0.942059 33.0417 1.19879C32.9295 1.30695 32.8254 1.38781 32.7173 1.5C32.6566 1.56368 32.6425 1.60007 32.5788 1.66273C32.3736 1.86792 32.222 2.10949 32.0603 2.34904C31.6226 3.00099 31.3103 4.07846 31.3103 4.95783C31.3103 6.41333 32.6142 8.51269 33.3025 9.54468C33.54 9.90148 33.9595 10.5271 34.2152 10.8556C34.3911 11.081 34.571 11.2539 34.7985 11.4065H34.7974ZM49.5677 6.11717H51.4801C51.8268 6.11717 52.2008 6.25161 52.4444 6.37391C53.2914 6.79843 53.8807 7.66364 53.8807 8.64004V9.53558H49.5677V6.11717ZM36.3126 6.92781C36.8281 6.92781 37.3476 6.69129 37.6852 6.3547C38.2532 5.78969 38.4261 4.94469 38.1229 4.19066C38.0339 3.97031 37.8995 3.75199 37.7428 3.59734C37.2698 3.13037 36.8907 2.96662 36.1963 2.96662C35.7829 2.96662 35.4191 3.12935 35.1168 3.34667C34.9966 3.43359 34.948 3.48615 34.846 3.58622C34.6842 3.74592 34.5508 3.95616 34.4609 4.17448C34.3739 4.38776 34.2739 4.77488 34.2981 5.00129C34.3335 5.32575 34.38 5.52082 34.4902 5.78362C34.659 6.18793 35.0815 6.58718 35.4868 6.75598C35.7304 6.85705 35.976 6.92781 36.3116 6.92781H36.3126Z" fill="#212529"/>
</g>
</g>
<defs>
<clipPath id="clip0_1_3621">
<rect width="85" height="20" fill="white" transform="translate(0.969971)"/>
</clipPath>
<clipPath id="clip1_1_3621">
<rect width="24.3221" height="20" fill="white" transform="translate(31.3088)"/>
</clipPath>
</defs>
</svg>
